<svg width="19" height="17" viewBox="0 0 19 17" fill="none" xmlns="http://www.w3.org/2000/svg">
<path d="M0.669739 8.62373C0.67075 12.7104 3.78067 16.19 8.00455 16.8305V11.0245H5.79898V8.62373H8.00716V6.79613C7.90844 5.93014 8.218 5.06706 8.85187 4.44097C9.48573 3.81489 10.3782 3.49069 11.2873 3.55631C11.9398 3.56638 12.5906 3.62191 13.2346 3.72246V5.76521H12.1358C11.7575 5.71786 11.3771 5.83725 11.1019 6.08974C10.8267 6.34224 10.6863 6.70051 10.7204 7.06363V8.62373H13.1294L12.7443 11.0254H10.7204V16.8305C15.2885 16.1406 18.4918 12.1541 18.0096 7.75901C17.5275 3.36389 13.5287 0.0987772 8.91027 0.329095C4.29182 0.559413 0.670473 4.20453 0.669739 8.62373Z" fill="#2E3A59"/>
</svg>
