<svg width="17" height="16" viewBox="0 0 17 16" fill="none" xmlns="http://www.w3.org/2000/svg">
<path d="M8.61882 6.25941V9.12624H13.0187C12.6092 10.948 10.895 11.9947 8.61882 11.9947C5.96765 11.9617 3.83761 10.0078 3.83761 7.60892C3.83761 5.21002 5.96765 3.25613 8.61882 3.22312C9.72082 3.22192 10.7889 3.56793 11.6396 4.20171L14.0268 2.04183C11.2885 -0.136275 7.28932 -0.416422 4.21304 1.35436C1.13677 3.12514 -0.277291 6.52127 0.743001 9.68832C1.76329 12.8554 4.97273 15.0322 8.61882 15.0302C12.7203 15.0302 16.4499 12.3312 16.4499 7.60851C16.4436 7.1538 16.382 6.70111 16.2662 6.25858L8.61882 6.25941Z" fill="#2E3A59"/>
</svg>
