<svg width="16" height="16" viewBox="0 0 16 16" fill="none" xmlns="http://www.w3.org/2000/svg">
<path d="M8.58153 15.6034H5.25864V5.63473H8.58153V7.29618C9.28984 6.39506 10.364 5.85784 11.5098 5.83162C13.5705 5.84306 15.2333 7.51996 15.2273 9.58067V15.6034H11.9044V9.99604C11.7715 9.06781 10.9755 8.3791 10.0378 8.38111C9.62764 8.39407 9.2405 8.57365 8.96569 8.8784C8.69089 9.18315 8.55216 9.58674 8.58153 9.99604V15.6034ZM3.59719 15.6034H0.274292V5.63473H3.59719V15.6034ZM1.93574 3.97329C1.01815 3.97329 0.274292 3.22943 0.274292 2.31184C0.274292 1.39425 1.01815 0.650391 1.93574 0.650391C2.85333 0.650391 3.59719 1.39425 3.59719 2.31184C3.59719 2.75248 3.42214 3.17508 3.11056 3.48666C2.79898 3.79824 2.37638 3.97329 1.93574 3.97329Z" fill="#2E3A59"/>
</svg>
